<svg xmlns="http://www.w3.org/2000/svg" viewBox="0 0 300 300"><path d="M50.58,138.1V134c0.13-.49.28-1,0.38-1.48s0.18-1.29.31-1.93a27.23,27.23,0,0,1,10.16-16.31A22.87,22.87,0,0,1,67.09,111c2-.77,3.87-2,6.15-2a23.46,23.46,0,0,0,2.74-.37c0.87-.1,1.75-0.15,2.67-0.22-0.09-.37-0.15-0.67-0.23-1l-9.83-37a19.35,19.35,0,0,1-.38-8.55,19.63,19.63,0,0,1,28-14.19L97,48A0.59,0.59,0,0,0,97.15,48c0.19-.24.39-0.47,0.58-0.72a14.92,14.92,0,0,1,8.87-5.73l1.37-.32H217.41l1.37,0.32a15,15,0,0,1,9.34,6.4l0.62,0.89,1-.58A19.22,19.22,0,0,1,243.12,46a19.63,19.63,0,0,1,15.29,24.42c-3.31,12.29-6.54,24.61-9.81,36.91-0.09.35-.16,0.7-0.25,1.06,1,0.08,1.81.14,2.65,0.23a27,27,0,0,1,17.58,8.84,26.13,26.13,0,0,1,7.07,15.94,2.75,2.75,0,0,0,.17.57v4.32a2.47,2.47,0,0,0-.16.58,23.78,23.78,0,0,1-1.91,8c-1,2.58-2.05,5.15-3.08,7.73q-7.39,18.56-14.77,37.13a27.82,27.82,0,0,1-8.92,12c-0.18.14-.35,0.3-0.49,0.42a0.6,0.6,0,0,0,0,.17l0.59,1.08a33.39,33.39,0,0,1,2.47,27.23A34.73,34.73,0,0,1,220.24,256c-0.95.09-1.89,0.24-2.83,0.37H108c-0.3-.06-0.59-0.12-0.89-0.17-2-.29-4-0.45-6-0.87a34.48,34.48,0,0,1-22-51.08c0.13-.23.24-0.47,0.37-0.71-0.18-.16-0.3-0.28-0.43-0.39a27.83,27.83,0,0,1-8.29-11.44q-8.82-22.19-17.66-44.37a30.74,30.74,0,0,1-2.17-8.11A6.36,6.36,0,0,0,50.58,138.1Zm58.78,55.16a22.33,22.33,0,0,0-6,.45,28.52,28.52,0,0,0,5.41,56.51H216.59a27.31,27.31,0,0,0,14.58-4c8.79-5.41,13.7-13.28,14.16-23.65a26.57,26.57,0,0,0-5.38-17.22,28.55,28.55,0,0,0-19.13-11.85,18.45,18.45,0,0,0-4.82-.24l-0.49,1a30.41,30.41,0,0,1-13.43,14,24.15,24.15,0,0,1-11.54,2.89H134.8a22.55,22.55,0,0,1-7.67-1.26,30,30,0,0,1-17.28-15.66C109.68,193.94,109.52,193.6,109.36,193.26Zm6.12-146c14.45,26.32,29.68,51.94,46.47,76.74l0.72-1C171.58,109.71,180,96.2,188.14,82.5q10-16.79,19.29-34c0.22-.41.42-0.82,0.67-1.32H115.47Zm127.4,152c0.33-.24.61-0.43,0.87-0.65a21.28,21.28,0,0,0,6.45-8.76q9.09-22.81,18.16-45.62a21,21,0,0,0,1-12.91,21.7,21.7,0,0,0-20-16.79c-0.84-.05-1.69,0-2.47,0-3.19,9.13-9.51,13.92-19.08,14.54-0.08.16-.2,0.37-0.28,0.59q-2.25,5.63-4.48,11.27a5.52,5.52,0,0,0-.32,1.39c-0.18,1.6-.33,3.2-0.49,4.81q-0.55,5.57-1.11,11.15-0.67,6.65-1.35,13.29c-0.39,3.89-.78,7.77-1.18,11.66-0.14,1.32-.33,2.64-0.51,4A35,35,0,0,1,242.87,199.22Zm-135.46-12c-0.16-1-.34-1.92-0.44-2.84q-0.85-8.18-1.66-16.36c-0.44-4.43-.87-8.86-1.32-13.29-0.46-4.64-1-9.27-1.39-13.91a19.18,19.18,0,0,0-1.59-6.74,22.58,22.58,0,0,1-1.43-3.63,1.84,1.84,0,0,0-2.26-1.6,1.79,1.79,0,0,1-.51,0c-8-1.29-13.4-5.68-16.21-13.28l-0.35-1c-0.4,0-.74-0.07-1.08-0.08a22.48,22.48,0,0,0-6.5.81,21.31,21.31,0,0,0-15.31,25.82,48.84,48.84,0,0,0,2.26,6.38Q68,168.65,76.45,189.78A21.41,21.41,0,0,0,82.18,198c0.27,0.24.57,0.46,0.89,0.71A34.63,34.63,0,0,1,107.42,187.21ZM99.18,123c1.08-.16,2.18-0.23,3.24-0.48a13.58,13.58,0,0,0,10-16.87q-4.09-15.44-8.2-30.88c-1.19-4.47-2.31-9-3.6-13.39a13.62,13.62,0,0,0-26.21,7.44c2,7.72,4.09,15.43,6.14,23.14,1.87,7,3.69,14,5.62,21A13.71,13.71,0,0,0,99.18,123Zm154-57.59c-0.15-1.11-.21-2.07-0.41-3a13.63,13.63,0,0,0-26.53-.55q-5.84,21.89-11.65,43.78a13.65,13.65,0,1,0,26.39,7q5.84-21.89,11.62-43.79C252.91,67.68,253,66.48,253.19,65.43Zm-74.28,81.94c0.13,0.2.2,0.32,0.28,0.42a231,231,0,0,0,20.45,23.46,89.46,89.46,0,0,0,11.93,10.06c0.3,0.21.62,0.39,1,.65l5.59-55.46c-0.16-.12-0.24-0.19-0.33-0.24A19.68,19.68,0,0,1,209,103.57c0.36-1.24.66-2.49,1-3.74C200,116,189.87,131.88,178.91,147.37ZM215,47.24a953.14,953.14,0,0,1-49.34,82c3.1,4.44,6.18,8.75,9.43,13.07,0.28-.37.49-0.63,0.68-0.91,2.5-3.64,5-7.27,7.49-10.94,11.45-17.09,22.11-34.66,32.32-52.5a6.44,6.44,0,0,0,.61-1.51c1.37-5.09,2.75-10.18,4.06-15.29a21.06,21.06,0,0,1,3.54-7.69,0.85,0.85,0,0,0,.11-1A9.11,9.11,0,0,0,215,47.24ZM112.68,181.15c0.45-.3.77-0.5,1.07-0.72a98.6,98.6,0,0,0,12.06-10.55,225.16,225.16,0,0,0,16.69-19.13c0.81-1,1.6-2,2.44-3.14-9.1-12.9-17.65-26.11-26-39.52a20.7,20.7,0,0,1-2.88,11.3,19.78,19.78,0,0,1-8.83,7.85ZM101.88,51.8c0.15,0.2.23,0.31,0.32,0.41a20.27,20.27,0,0,1,4.45,8.47q3.42,13,6.89,25.91a7.31,7.31,0,0,0,.75,1.78q3.2,5.45,6.45,10.87c8.66,14.39,17.69,28.54,27.3,42.31,0.21,0.3.44,0.59,0.74,1,3.3-4.41,6.43-8.8,9.54-13.27-18-26.47-34.34-53.94-49.64-82A9.12,9.12,0,0,0,101.88,51.8Zm59.89,118.31L161,171c-4.51,5.53-9.15,10.93-14.07,16.09a128.08,128.08,0,0,1-18.17,16.32,2,2,0,0,0-.28.35c0.41,0.13.72,0.24,1,.34a20.77,20.77,0,0,0,5.79.73H190a25.79,25.79,0,0,0,2.87-.15,6.67,6.67,0,0,0,2.28-.48C182.28,194.5,171.91,182.46,161.77,170.11Zm3.89-4.84c0.25,0.33.45,0.6,0.66,0.86,2.87,3.45,5.7,6.94,8.64,10.34a178.61,178.61,0,0,0,17.78,18.11,62.86,62.86,0,0,0,7.84,6c1.48,0.92,1.08,1.09,2.61-.17a25.85,25.85,0,0,0,7.9-11.21c0.1-.28.18-0.57,0.27-0.84-1.23-.81-2.42-1.56-3.57-2.36a104.82,104.82,0,0,1-15.22-13.32A248,248,0,0,1,176,153.52c-0.25-.31-0.51-0.61-0.8-1Zm-43.33,35.21c1.35-.91,2.72-1.76,4-2.71A106.72,106.72,0,0,0,138.65,187a255.2,255.2,0,0,0,18.72-21c0.19-.24.36-0.48,0.55-0.74l-9.36-12.49-1,1.27A230.79,230.79,0,0,1,129.21,175a91.78,91.78,0,0,1-15.12,12.48,1.93,1.93,0,0,0-.27.25A25.8,25.8,0,0,0,122.34,200.48Zm49.08-52.89-9.45-13-9.54,13.17c3.06,4.23,6.12,8.42,9.41,12.63Z"/></svg>