<svg xmlns="http://www.w3.org/2000/svg" viewBox="0 0 300 300"><path d="M169.54,40.1h20.67a0.62,0.62,0,0,0,.17.09c5.05,0.66,8.72,5.59,8.7,10.28,0,11.83,0,23.66,0,35.48a2.92,2.92,0,0,0,.17.95,63.26,63.26,0,0,1,3.63,21.16q0,10.54,0,21.08v0.66h0.66c5.45,0,10.9,0,16.35,0a9.82,9.82,0,0,1,9.87,7.76c0.1,0.46.18,0.93,0.26,1.39v68a2.07,2.07,0,0,0-.09.34,9.46,9.46,0,0,1-2.11,5.21,9.62,9.62,0,0,1-7.75,3.69c-5.93,0-11.86,0-17.79,0a0.75,0.75,0,0,0-.79.52c-2.95,6-7.75,9.35-14.46,9.37q-47.39.1-94.77,0C85.73,226,81,222.76,78,217a0.76,0.76,0,0,0-.81-0.49H60.71c-0.67,0-1.34,0-2,0a9.78,9.78,0,0,1-8.85-6.85c-0.2-.63-0.31-1.29-0.46-1.94q0-34.41,0-68.81a0.63,0.63,0,0,0,.09-0.17,9.8,9.8,0,0,1,10-8.57h17v-0.7c0-7.1,0-14.19,0-21.29,0-2.51.18-5,.44-7.53a60.23,60.23,0,0,1,3.92-15.69,2.94,2.94,0,0,0,.2-1c0-11.11,0-22.21,0-33.32A12.49,12.49,0,0,1,81.63,47a9.16,9.16,0,0,1,6.09-6.56c0.48-.16,1-0.25,1.48-0.37h20.67a19.44,19.44,0,0,1,2,.55,9.59,9.59,0,0,1,5.65,6.14c0.22,0.62.35,1.27,0.52,1.91a63.85,63.85,0,0,1,43.17-.07,0.22,0.22,0,0,0,.06,0c0.06-.23.11-0.46,0.17-0.69,1-3.74,3.19-6.43,7-7.53C168.82,40.26,169.18,40.19,169.54,40.1ZM139.7,143.32H95.37a15.11,15.11,0,0,0-2,.14,12.63,12.63,0,0,0-10.87,12.4q0,25.56,0,51.12A12.61,12.61,0,0,0,95.23,219.5h88.91A12.66,12.66,0,0,0,196.9,207q0-25.58,0-51.17a12.11,12.11,0,0,0-4.18-9.22,12.41,12.41,0,0,0-8.63-3.28H139.7Zm57.2-1.21v-0.58q0-16.64,0-33.27a56.61,56.61,0,0,0-.64-8.7,55,55,0,0,0-8.73-22.67,59.59,59.59,0,0,0-18.36-17.77,56.91,56.91,0,0,0-70.44,9.21A50.18,50.18,0,0,0,88,84.81c-1.32,3.41-2.39,6.92-3.56,10.39a24.53,24.53,0,0,0-1.28,4.11,53.78,53.78,0,0,0-.66,7.51c-0.07,11.66,0,23.31,0,35a3.69,3.69,0,0,0,.05.42l0.29-.25a18.41,18.41,0,0,1,12.38-4.63q44.51,0,89,0a17.72,17.72,0,0,1,8.95,2.31C194.47,140.37,195.66,141.27,196.9,142.11Zm6,68a2.35,2.35,0,0,0,.3,0c5.66,0,11.31,0,17,0a3.77,3.77,0,0,0,3.79-3.95q0-33.22,0-66.44a4.47,4.47,0,0,0-.08-1,3.9,3.9,0,0,0-4.1-3h-16.4c-0.15,0-.3,0-0.47,0v74.32Zm-126.44.35V136.11l-0.49,0H59.43a3.88,3.88,0,0,0-4,4.06q0,33.14,0,66.29a4.63,4.63,0,0,0,.15,1.17,3.87,3.87,0,0,0,4.05,2.88H76.47ZM193.1,74.28V73.74q0-11.67,0-23.34a3.92,3.92,0,0,0-.11-0.86,4.33,4.33,0,0,0-3.91-3.45h-18.4a2.93,2.93,0,0,0-2.09.84,5,5,0,0,0-1.48,3.19c-0.1.88-.1,0.88,0.7,1.29l0.41,0.22a64.61,64.61,0,0,1,24.36,21.85ZM87.14,73l0.28-.38a66.35,66.35,0,0,1,24.16-21.28,0.93,0.93,0,0,0,.5-0.53,5,5,0,0,0-1-3.51,2.92,2.92,0,0,0-2.44-1.19H90.4a2.69,2.69,0,0,0-2.32,1.19,5.33,5.33,0,0,0-1,3.19q0,10.95,0,21.9C87.1,72.52,87.12,72.68,87.14,73Z"/></svg>