<svg xmlns="http://www.w3.org/2000/svg" viewBox="0 0 300 300"><path d="M174.2,42.77L176,43.15a15.2,15.2,0,0,1,12,16.22,19.53,19.53,0,0,1-2.54,8.27q-18.06,31.23-36.06,62.5c-0.17.29-.32,0.59-0.55,1,0.37,0,.65.07,0.94,0.07h74.35c2.63,0,5.28-.18,7.93.57,0.23-.38.45-0.72,0.65-1.07q8-13.79,16-27.58a6.52,6.52,0,0,1,1.27-1.58,3.18,3.18,0,0,1,2.24-.57h35.17c2.13,0,2.86.5,3.64,2.45v1.23a7.89,7.89,0,0,1-.66,1.23,2.66,2.66,0,0,1-2.13,1.07h-1q-16.35,0-32.7,0a1.67,1.67,0,0,0-1.68,1q-7.29,12.7-14.65,25.37c-0.17.29-.32,0.59-0.49,0.91,6.07,4.62,8.85,10.66,7.52,18.18s-6.07,12.12-13.34,14.38a83.42,83.42,0,0,1-23.17,40.57l0.53,0.45A27.17,27.17,0,0,1,219.9,227c1,10-2.19,18.44-9.91,24.9-11.33,9.49-28,7.42-37-4.45A28.09,28.09,0,0,1,167.21,231c0-.21,0-0.41,0-0.62a1.56,1.56,0,0,0-.11-0.3c-10.59,2.05-21.23,2.45-31.94.14-0.08,1.06-.14,2-0.23,3-1.13,11.42-9.14,21.56-20.7,24.07-9.37,2-17.54-.57-24.21-7.41a27.19,27.19,0,0,1-7.78-20.87,27.57,27.57,0,0,1,8.65-19.29,3.74,3.74,0,0,1,.58-0.37c-0.25-.29-0.37-0.44-0.51-0.58A83.24,83.24,0,0,1,69.7,175c-0.82-2.36-1.49-4.77-2.19-7.17a1,1,0,0,0-.95-0.85,17.86,17.86,0,0,1-15.21-14.9A7.18,7.18,0,0,0,51,151v-3.5a8.71,8.71,0,0,0,.38-1.15,17.73,17.73,0,0,1,11.7-14.08l1-.39c0.07-.73.15-1.41,0.21-2.09a89,89,0,0,1,3.75-19.54C75.31,87.3,89.72,70.6,111.65,60.61c14-6.38,28.78-8.64,44.1-7.61,0.64,0,1.29.06,1.92,0.09,0.54-.93,1-1.79,1.54-2.64a15.42,15.42,0,0,1,10.13-7.3l1.78-.38h3.09Zm-6.32,181c0.1-.34.18-0.6,0.25-0.86a29.75,29.75,0,0,1,2.28-5.93c5.66-11.15,18.75-17.79,32-12.87a1.18,1.18,0,0,0,1.43-.35,77.29,77.29,0,0,0,21.5-35.64c0.07-.25.09-0.52,0.14-0.81H73.55c4.15,14.88,11.35,27.83,22.8,38.28,7.89-3.87,15.86-4.26,23.74-.46s12.34,10.48,14.35,18.84A73.05,73.05,0,0,0,167.88,223.73ZM148.39,137.2H69.72a14.6,14.6,0,0,0-2.46.17,12,12,0,0,0-6.86,20.09,11.81,11.81,0,0,0,9.12,3.78H192q17.74,0,35.48,0a12,12,0,0,0,3.14-23.61,14.21,14.21,0,0,0-3.66-.41Q187.68,137.18,148.39,137.2Zm-35.69-6,41.16-71.38c0.12-.21.22-0.42,0.33-0.64a0.15,0.15,0,0,0,0-.1,0.84,0.84,0,0,0-.08-0.14c-0.24,0-.5-0.06-0.77-0.07a93.92,93.92,0,0,0-14.88.56A82.46,82.46,0,0,0,117,64.81c-16.59,6.76-29.27,17.9-37.71,33.76a81.52,81.52,0,0,0-8.76,28.94c-0.14,1.18-.22,2.38-0.34,3.64H112.7Zm7,0c0.39,0,.65,0,0.91,0,6.82,0,13.65,0,20.47,0a1.16,1.16,0,0,0,1.28-.75,2.66,2.66,0,0,1,.2-0.36q18.9-32.77,37.81-65.53A13.4,13.4,0,0,0,182,59.76a10.65,10.65,0,0,0-.07-3.47,9.14,9.14,0,0,0-7.41-7.34,9.66,9.66,0,0,0-9.89,4.22c-0.35.55-.62,1.14-0.94,1.71L120.28,130C120.08,130.37,119.9,130.73,119.66,131.18Zm73.47,120.74c6.64-.14,11.72-2.52,15.66-7.15a21.73,21.73,0,0,0,5.14-17.4A21.42,21.42,0,0,0,205,212.13a6.44,6.44,0,0,0-1.24-.72c-1.51-.65-3-1.29-4.55-1.89a12.71,12.71,0,0,0-2.55-.77,18.56,18.56,0,0,0-12.85,2.44c-6.87,4.15-10.14,10.47-10.58,18.32a20.73,20.73,0,0,0,2.85,11.73C180,248,185.82,251.61,193.13,251.91Zm-64-21.73c0-.53-0.07-1.38-0.16-2.24a21.54,21.54,0,0,0-7.58-14.69,17.54,17.54,0,0,0-10.78-4.54,29.72,29.72,0,0,0-4.81.3,18.06,18.06,0,0,0-9.24,3.65A22.56,22.56,0,0,0,94.59,246a19.55,19.55,0,0,0,27.38.61C126.66,242.28,128.88,236.83,129.11,230.18Z"/><path d="M193.66,246.5a15.15,15.15,0,0,1-12.41-6.37,16.81,16.81,0,0,1,1.3-21.45,15.23,15.23,0,0,1,21.68-.52c8,7.69,6.27,21.27-3.38,26.52A14.74,14.74,0,0,1,193.66,246.5ZM184,230.15a10.44,10.44,0,0,0,2.89,7.4,9.19,9.19,0,0,0,13.25.26,10.8,10.8,0,0,0,.64-14.57,9.21,9.21,0,0,0-14.09-.2A10.35,10.35,0,0,0,184,230.15Z"/><path d="M124.25,231.52a15.66,15.66,0,0,1-6.42,11.85,15.17,15.17,0,0,1-20.21-1.56,16.82,16.82,0,0,1,.07-23.33,15.34,15.34,0,0,1,24.67,3.89C123.63,224.81,124.25,227.37,124.25,231.52Zm-6-.53a11.34,11.34,0,0,0-2.42-7.63,9.24,9.24,0,0,0-14.37-.13,10.82,10.82,0,0,0,.06,14,9.2,9.2,0,0,0,13.67.49A10.08,10.08,0,0,0,118.27,231Z"/></svg>