<svg xmlns="http://www.w3.org/2000/svg" viewBox="0 0 300 300"><defs><style>.cls-1{fill:none;stroke-linecap:round;stroke-linejoin:round;stroke-width:6px;}</style></defs><title>button</title><path class="cls-1" d="M277.8,256.33h-109c-6.15,0-10.64-6.34-9.09-12.82L183.27,145h80l23.6,98.51C288.44,250,284,256.33,277.8,256.33Z"/><rect class="cls-1" x="43.24" y="145" width="79.06" height="110.73"/><path class="cls-1" d="M223.86,58.61A38.83,38.83,0,0,1,197.24,48H184v97h79V48H250.49A38.83,38.83,0,0,1,223.86,58.61Z"/><line class="cls-1" x1="83" y1="187" x2="83" y2="256"/><path class="cls-1" d="M147.54,87.23L123.81,49.38,122,50.54V48H109.57a38.72,38.72,0,0,1-53.25,0H43v2.3l-1.25-.91L18,87.23,43,104v41h79V104.23Z"/></svg>