<svg xmlns="http://www.w3.org/2000/svg" viewBox="0 0 300 300"><path d="M190.72,41.25h2.88a1.32,1.32,0,0,0,.28.09A16.82,16.82,0,0,1,209,58a16.41,16.41,0,0,1-4.17,11.15,0.72,0.72,0,0,0-.08,1c0.73,1.35,1.48,2.71,2.1,4.11A37.23,37.23,0,0,1,210,90.57a50.85,50.85,0,0,1-2.61,15.48,35.09,35.09,0,0,1-11.27,16.18l-0.61.51,0.22,0.06c4.22,0.45,8.45.85,12.67,1.36a132.73,132.73,0,0,1,15,2.67,28.09,28.09,0,0,1,14.41,8,19.4,19.4,0,0,1,5.18,9.3,11,11,0,0,1-4.57,11.6,16.12,16.12,0,0,1-9.21,2.59,27.13,27.13,0,0,1-10.22-2l-0.55-.19,1.7,3.89a129.09,129.09,0,0,1,6.19,16.41,40,40,0,0,1,1.7,14.66,22.7,22.7,0,0,1-5.1,12.61c-0.83,1-1.77,1.94-2.67,2.93l0.38,0.3a22.36,22.36,0,0,1,6,6.65,12.88,12.88,0,0,1,1.29,10.87,14,14,0,0,1-6.62,7.63,27.48,27.48,0,0,1-12.67,3.42c-0.45,0-.91.07-1.36,0.1h-0.82a2.46,2.46,0,0,0-.43-0.08,38.26,38.26,0,0,1-8.94-1.21,54.58,54.58,0,0,1-10.57-4.2c-5.66-2.79-11.1-6-16.46-9.27a2.88,2.88,0,0,0-1.73-.43c-3.08.12-6.16,0.21-9.24,0.26-1.54,0-3.08-.11-4.62-0.11-1.32,0-2.64.11-4,.11a2.65,2.65,0,0,0-1.58.46c-0.55.38-1.13,0.7-1.71,1A172.56,172.56,0,0,1,128.9,232a39.88,39.88,0,0,1-15,3.57c-0.33,0-.67.06-1,0.09H112a1.93,1.93,0,0,0-.39-0.08,30.79,30.79,0,0,1-6.52-.75,20.84,20.84,0,0,1-10.28-5.08,12.18,12.18,0,0,1-3.7-12.26A17.39,17.39,0,0,1,96,209.3a28.62,28.62,0,0,1,5.77-4.43,0.46,0.46,0,0,0,0-.11l-0.17-.19a27.44,27.44,0,0,1-7.94-18.75A47.16,47.16,0,0,1,95,173.09a102.83,102.83,0,0,1,5.06-15.28l0.69-1.73-0.37.12A28.25,28.25,0,0,1,92.63,158a19.4,19.4,0,0,1-8.61-1,11.28,11.28,0,0,1-7.07-6.7,25.53,25.53,0,0,1-.71-2.77q0-1.13,0-2.26a1,1,0,0,0,.08-0.23A14.75,14.75,0,0,1,77.86,140a25.31,25.31,0,0,1,8.92-9.61,28.44,28.44,0,0,1,9-3.69A159.58,159.58,0,0,1,119,123l2.31-.23-0.62-.48A33.7,33.7,0,0,1,110,108.58a48.66,48.66,0,0,1-3.54-20.39A36.55,36.55,0,0,1,110.11,73l0.53-1.09-0.24-.19a16.59,16.59,0,0,1-6.91-15.14,16.78,16.78,0,0,1,12.63-14.84c0.89-.22,1.8-0.35,2.7-0.52h2.88c0.48,0.08,1,.15,1.44.25a16.77,16.77,0,0,1,11.92,8.58,1.81,1.81,0,0,0,.15.21,61.88,61.88,0,0,1,42.69-1.24L178,49l0.26-.38a16.69,16.69,0,0,1,10-6.9C189,41.52,189.89,41.41,190.72,41.25ZM165.21,214.37v0.08c1.68-.06,3.35-0.1,5-0.17a80.42,80.42,0,0,0,13.86-1.66,30.21,30.21,0,0,0,9.34-3.46,11.2,11.2,0,0,0,4.88-5.39,13.79,13.79,0,0,0,.58-7.24,39,39,0,0,0-2.59-9.12c-1.77-4.36-3.66-8.67-5.44-13a27.93,27.93,0,0,0-7.2-10.38,38.14,38.14,0,0,0-47.35-3.14,29,29,0,0,0-10.25,11.75,96.73,96.73,0,0,0-6,16.6,29.37,29.37,0,0,0-1,11.19,13.18,13.18,0,0,0,7.08,10.17,1.51,1.51,0,0,0,.43.17c3.45,0.7,6.89,1.51,10.37,2.05,3.72,0.58,7.47,1,11.22,1.32a49.57,49.57,0,0,0,8.41.36c0.56,0,1.13-.09,1.69-0.09h6.89Zm36.94-4.95s0,0,0,0l0.69-.21a40.65,40.65,0,0,0,11.32-5.49,18.87,18.87,0,0,0,6.27-7.34,21.17,21.17,0,0,0,1.37-11.93,54.13,54.13,0,0,0-2.78-10.87c-1.83-5.2-4.09-10.23-6.29-15.28a56.56,56.56,0,0,0-4.2-8.5,3.43,3.43,0,0,0-.51-0.64c-3.2-3-6.16-6.19-9.06-9.46a17.15,17.15,0,0,0-2.31-2.46,58.15,58.15,0,0,0-17.16-8.77,1.36,1.36,0,0,0-.82,0c-1.41.52-2.79,1.13-4.22,1.59a50.59,50.59,0,0,1-19.68,2.2,47.9,47.9,0,0,1-15.06-3.61,1.19,1.19,0,0,0-.77,0,59.76,59.76,0,0,0-15,7.45,9,9,0,0,0-1.71,1.37c-3.23,3.69-6.5,7.34-10.05,10.72a10.51,10.51,0,0,0-2.53,3.06c-0.16.34-.38,0.65-0.54,1a116.26,116.26,0,0,0-7.84,20.7,39.24,39.24,0,0,0-1.45,14.48,21,21,0,0,0,4.79,11.49,29.84,29.84,0,0,0,9.78,7.37,0.3,0.3,0,0,0,.13,0,0.16,0.16,0,0,0,0-.06l-0.17-.48a22.37,22.37,0,0,1-1.37-7.18,40,40,0,0,1,1.41-11.18,124.49,124.49,0,0,1,5.13-14.83,34.64,34.64,0,0,1,11.17-15,43.33,43.33,0,0,1,34.36-9A42.71,42.71,0,0,1,185,157.21a34.94,34.94,0,0,1,10.94,13.72q2.93,6.7,5.68,13.48A45.57,45.57,0,0,1,205,196.8a18.62,18.62,0,0,1-1,8.95C203.46,207,202.76,208.19,202.15,209.42Zm-10-91.86,0.1,0.1c0.83-.76,1.69-1.49,2.48-2.28a29.43,29.43,0,0,0,6.88-11.08A44.84,44.84,0,0,0,204,90.4a31.53,31.53,0,0,0-4.71-17.71,40.9,40.9,0,0,0-16.86-15.17A55,55,0,0,0,140,54.94a45.29,45.29,0,0,0-18.49,12,34.33,34.33,0,0,0-7.65,13,32.09,32.09,0,0,0-1.41,10.69A47.29,47.29,0,0,0,114,102a28.48,28.48,0,0,0,12.55,17l0.52,0.31c-0.56-.87-1.09-1.61-1.55-2.39a18.12,18.12,0,0,1-2.5-11.63,19.76,19.76,0,0,1,4.91-10.61,31.61,31.61,0,0,1,10.6-7.79l0.65-.31a5.7,5.7,0,0,1,5.19-10.08c2.8,1.07,4,3.71,3.29,7.28a53.07,53.07,0,0,1,21.43-.27c-0.58-3.33.54-5.78,3.13-6.92a5.71,5.71,0,0,1,6.8,1.7,5.55,5.55,0,0,1,1.2,3.43,5.75,5.75,0,0,1-2.11,4.53l0.59,0.29c1.1,0.55,2.23,1.06,3.3,1.66a27.58,27.58,0,0,1,10.12,9.21,18.12,18.12,0,0,1,2.6,13.91A19.25,19.25,0,0,1,192.17,117.56ZM145,90.83c-0.2.06-.35,0.1-0.48,0.16-1.6.7-3.24,1.31-4.78,2.11a22.65,22.65,0,0,0-8.19,6.8,12.47,12.47,0,0,0,.09,15.41,22.37,22.37,0,0,0,6.93,6c6.43,3.72,13.44,5.13,20.79,5.15a43,43,0,0,0,7.67-.69,36.88,36.88,0,0,0,13-4.75,20.81,20.81,0,0,0,7.37-7.16,12.06,12.06,0,0,0,1.59-8.49,14.31,14.31,0,0,0-3.69-7.05,27.26,27.26,0,0,0-10.46-6.88c-1-.39-2-0.72-3.13-1.11l0.22,0.58a7,7,0,0,1-.38,5.77,10.8,10.8,0,0,1-5.2,4.71,18.46,18.46,0,0,1-10.63,1.52,15.16,15.16,0,0,1-7.79-3.18C145.09,97.44,143.8,94.58,145,90.83Zm-23.32,38h-0.28c-4,.47-8,0.9-12,1.42a115.61,115.61,0,0,0-12,2.26,22.13,22.13,0,0,0-11.29,6.24,13.91,13.91,0,0,0-3.61,6,5.15,5.15,0,0,0,3.17,6.52,10.9,10.9,0,0,0,3.94.87,22.19,22.19,0,0,0,11.65-2.94,34.2,34.2,0,0,0,7.4-5.92,167,167,0,0,0,11.7-12.89Zm76.3,0.16-0.07.11,0.38,0.47c1,1.2,2,2.4,3,3.58A145.78,145.78,0,0,0,213,145.59a24.37,24.37,0,0,0,14.29,6.68,12.54,12.54,0,0,0,6.59-.87,5,5,0,0,0,3.27-4.47,7.7,7.7,0,0,0-.94-3.9,19.21,19.21,0,0,0-8.91-8.51,31.59,31.59,0,0,0-8.43-2.54q-5.78-1.08-11.59-1.93C204.2,129.61,201.06,129.33,197.93,129Zm-59.42,91.36,0-.11-2.18-.3a40.66,40.66,0,0,1-11.64-3.37,5.24,5.24,0,0,0-.85-0.34,59.37,59.37,0,0,1-16.65-7.09,0.68,0.68,0,0,0-.59,0c-1.07.6-2.16,1.19-3.18,1.87a16.91,16.91,0,0,0-5.6,5.84,6.72,6.72,0,0,0,1.8,9.11,14.4,14.4,0,0,0,5.2,2.61,30.23,30.23,0,0,0,17.56-.46,67.71,67.71,0,0,0,11.58-5.23C135.46,222,137,221.17,138.51,220.33Zm41.21-.65,0.27,0.2a127,127,0,0,0,13.9,7.08,31.83,31.83,0,0,0,18.46,2.09,16.25,16.25,0,0,0,7.38-3.18,6.66,6.66,0,0,0,1.92-8.68,17.23,17.23,0,0,0-6.47-6.66,0.65,0.65,0,0,0-.54.06,48.54,48.54,0,0,1-6.91,3.25c-7.87,3-16.08,4.46-24.39,5.44C182.17,219.43,181,219.55,179.72,219.69ZM113.83,66.78a48.42,48.42,0,0,1,15.93-13.84,10.82,10.82,0,0,0-20.1,2.78A10.72,10.72,0,0,0,113.83,66.78Zm69.81-15.36a50.13,50.13,0,0,1,17.2,13.11A10.81,10.81,0,0,0,183.64,51.42Z"/></svg>