<svg xmlns="http://www.w3.org/2000/svg" viewBox="0 0 300 300"><path d="M61.06,226.2l-1-.41a4.64,4.64,0,0,1-3.13-3.86,7,7,0,0,1-.08-1c0-6.38,0-12.75,0-19.13a11,11,0,0,1,5.56-9.92,30.53,30.53,0,0,1,3.87-1.67,4.19,4.19,0,0,0-.29-0.47A27.63,27.63,0,0,1,60.67,177a31.83,31.83,0,0,1,2.5-17.77A16.94,16.94,0,0,1,67,153.57a1.19,1.19,0,0,0,.41-1c0-.38,0-0.75,0-1.13q0-15.38,0-30.75v-1.4h59.81l0.05,0a0.22,0.22,0,0,1,.06.08,0.83,0.83,0,0,1,0,.2c0,4.56,0,9.12,0,13.77,0.35,0.13.68,0.28,1,.39,7.33,2.37,14.64,4.79,22,7.05,1.52,0.47,3,1,4.52,1.49,5.68,1.9,11.39,3.71,17.09,5.55q10.5,3.4,21,6.8a8.48,8.48,0,0,0,2.42.39A58.49,58.49,0,0,1,217.82,160a40.7,40.7,0,0,1,15,11.19,33.37,33.37,0,0,1,7.61,18.43c0,0.17,0,.33.09,0.59l1.09,0.19a11.27,11.27,0,0,1,9.53,10.36c0,0.51.06,1,.06,1.54q0,9.15,0,18.31a7.83,7.83,0,0,1-.17,1.94,4.61,4.61,0,0,1-3,3.27l-1,.41h-186Zm60.29-88.38v-6.34c0-1,0-2.06,0-3.09s0.06-2.1,0-3.12H73.41v25.6c25.19,2.85,42.44,16.27,52.6,39.28H234.43a7,7,0,0,0,0-.85,27.69,27.69,0,0,0-4.82-12.53,33.49,33.49,0,0,0-13.2-10.84,52.91,52.91,0,0,0-22.3-4.9,6.8,6.8,0,0,1-1.91-.29c-4.53-1.44-9.06-2.92-13.58-4.39l-5.34-1.71-0.84.7L156,169.64a8.43,8.43,0,0,1-1,.77,3,3,0,0,1-4.52-1.88,3.09,3.09,0,0,1,1.23-3.16q7-6,13.89-12.08c0.28-.24.54-0.5,0.89-0.82-0.4-.15-0.68-0.26-1-0.35-4.17-1.35-8.34-2.69-12.5-4.07a1.55,1.55,0,0,0-1.74.35q-8.19,7.19-16.43,14.33a9.24,9.24,0,0,1-.71.59,3,3,0,0,1-3.94-4.47,8.5,8.5,0,0,1,.68-0.62l13.8-12c0.19-.17.35-0.36,0.61-0.62ZM62.81,220H245.24v-1.16q0-8.28,0-16.56c0-.34,0-0.69,0-1a5.26,5.26,0,0,0-4.35-4.92,10.82,10.82,0,0,0-1.94-.14H69.11c-0.38,0-.76,0-1.13,0a5.35,5.35,0,0,0-5,4,8.71,8.71,0,0,0-.21,2.14c0,5.52,0,11,0,16.56C62.81,219.23,62.81,219.6,62.81,220Zm56.54-29.82c-0.17-.4-0.26-0.65-0.37-0.89a57.39,57.39,0,0,0-17.43-21.64C93.07,161.27,83.44,158,73,156.91a1.52,1.52,0,0,0-1.13.37,9.39,9.39,0,0,0-2.47,3,24.62,24.62,0,0,0-2.45,6.84,23.38,23.38,0,0,0,2,16.08,12.67,12.67,0,0,0,5.77,6.07,5.32,5.32,0,0,1,1,.92h43.66Z"/><path d="M181.37,143.14v-14l-4.54-1.49q-9-2.94-18.07-5.88c-0.51-.17-1.07-0.21-1.59-0.34a9.66,9.66,0,0,1-1.27-.38c-0.66-.26-1.29-0.62-2-0.84q-8.34-2.75-16.69-5.46-10.78-3.51-21.58-7a8.25,8.25,0,0,0-2.22-.31,61.88,61.88,0,0,1-19-3.44A42.69,42.69,0,0,1,79,94.68,33.65,33.65,0,0,1,68.64,73.83c-0.06-.51-0.14-1-0.21-1.58-0.54-.1-1.08-0.18-1.6-0.29a11.32,11.32,0,0,1-9-10.83c0-1,0-1.92,0-2.88,0-5.52,0-11,0-16.56a7.23,7.23,0,0,1,.29-2.12,4.69,4.69,0,0,1,4.25-3.2c0.31,0,.62,0,0.93,0h183.5a8.61,8.61,0,0,1,1.53.1A4.68,4.68,0,0,1,252.2,41c0,0.1,0,.21,0,0.31,0,6.55,0,13.1,0,19.65a11.22,11.22,0,0,1-7.63,10.64c-0.71.24-1.45,0.4-2.24,0.61a3.8,3.8,0,0,0,.28.49A27.43,27.43,0,0,1,248,85.42a31.71,31.71,0,0,1-2.66,18.35,15.71,15.71,0,0,1-3.58,5.22,1.76,1.76,0,0,0-.45,1.5q0,15.63,0,31.27v1.39h-60Zm53.91-31.44c-25.15-3-42.32-16.47-52.35-39.44H74.56c0,0.24,0,.41,0,0.57a27.68,27.68,0,0,0,6.2,15A33.57,33.57,0,0,0,93.1,97a54,54,0,0,0,21.58,4.49,7.46,7.46,0,0,1,2.11.33q8.95,2.88,17.87,5.83a1.78,1.78,0,0,0,2-.4c5.46-4.8,10.95-9.56,16.43-14.33a6.92,6.92,0,0,1,1-.77,3,3,0,0,1,4.53,2.58,3.16,3.16,0,0,1-1.27,2.47q-7,6.06-14,12.15l-0.86.77c0.34,0.13.53,0.21,0.72,0.28,4.23,1.38,8.47,2.73,12.69,4.15a1.6,1.6,0,0,0,1.82-.35q8.19-7.2,16.43-14.33a6.44,6.44,0,0,1,.88-0.7,3,3,0,0,1,4.55,2.55,3.23,3.23,0,0,1-1.33,2.54q-6.92,6-13.81,12c-0.25.22-.52,0.41-0.94,0.74l23.89,7.78v12.33h47.89V111.71Zm10.89-69.27H63.77c0,0.4,0,.73,0,1.07q0,8.38,0,16.77a7.94,7.94,0,0,0,.13,1.53A5.19,5.19,0,0,0,68,66.07a7.46,7.46,0,0,0,1.84.12H241.07a5.14,5.14,0,0,0,3.86-1.87,5.42,5.42,0,0,0,1.29-3.7q0-8.69,0-17.38C246.22,43,246.19,42.77,246.17,42.44ZM189.72,72.23a1.13,1.13,0,0,0,0,.31c0.07,0.19.16,0.38,0.24,0.57a58.2,58.2,0,0,0,12,17.08c9.31,9.16,20.6,14,33.49,15.45a2.19,2.19,0,0,0,1.86-.62,11.83,11.83,0,0,0,2.73-3.95,27.6,27.6,0,0,0,2.34-9.43,22.68,22.68,0,0,0-3.45-13.82,10.82,10.82,0,0,0-4.4-4.21,1.75,1.75,0,0,1-1.27-1.39H189.72Z"/></svg>